<?xml version="1.0" standalone="no"?>
<!DOCTYPE svg PUBLIC "-//W3C//DTD SVG 20010904//EN"
 "http://www.w3.org/TR/2001/REC-SVG-20010904/DTD/svg10.dtd">
<svg version="1.0" xmlns="http://www.w3.org/2000/svg"
 width="512.000000pt" height="512.000000pt" viewBox="0 0 512.000000 512.000000"
 preserveAspectRatio="xMidYMid meet">
<metadata>
Created by potrace 1.11, written by Peter Selinger 2001-2013
</metadata>
<g transform="translate(0.000000,512.000000) scale(0.100000,-0.100000)"
fill="#000000" stroke="none">
<path d="M1565 4704 c-235 -54 -397 -195 -472 -412 -73 -211 -13 -462 147
-622 38 -37 84 -76 102 -85 104 -55 128 -65 183 -78 215 -50 425 11 580 167
139 140 199 325 171 523 -17 120 -78 235 -176 333 -122 122 -253 177 -425 178
-49 0 -99 -2 -110 -4z"/>
<path d="M3330 4690 c-53 -17 -112 -43 -173 -76 -16 -9 -60 -47 -98 -85 -163
-165 -218 -405 -144 -630 52 -155 187 -300 336 -360 79 -32 145 -46 230 -48
298 -9 561 210 612 508 8 47 13 96 11 110 -1 14 -5 49 -8 78 -13 121 -74 241
-171 339 -125 126 -264 183 -442 182 -62 -1 -118 -7 -153 -18z"/>
<path d="M874 3235 c-99 -27 -199 -103 -249 -189 -13 -23 -87 -201 -165 -396
-78 -195 -147 -368 -154 -385 -7 -16 -26 -61 -41 -100 -15 -38 -33 -83 -41
-100 -60 -140 -94 -239 -90 -263 3 -15 8 -103 11 -197 6 -170 10 -260 19 -455
3 -58 8 -168 11 -245 8 -202 13 -241 34 -283 42 -82 116 -126 211 -126 134 1
223 87 235 227 2 29 7 117 10 197 3 80 7 183 10 230 2 47 7 148 10 225 3 77 8
186 11 242 l5 101 84 169 85 168 0 -816 c0 -645 3 -818 13 -821 6 -2 368 -4
802 -3 l790 0 3 1103 2 1102 33 1 c141 4 427 18 497 24 30 2 87 7 125 10 39 3
93 8 120 10 75 6 171 14 250 20 113 9 187 15 240 20 28 3 82 7 120 10 124 10
172 29 236 97 107 112 55 310 -96 368 -34 14 -79 17 -375 25 -118 4 -269 8
-335 10 -615 19 -927 25 -1695 30 -561 4 -684 2 -726 -10z m648 -1016 c53 -12
112 -43 137 -72 12 -15 16 -13 44 13 47 44 93 62 168 68 114 8 207 -41 254
-133 95 -190 -5 -400 -285 -596 -107 -75 -158 -102 -184 -95 -28 7 -190 112
-261 170 -179 144 -251 318 -196 467 30 78 89 143 154 168 61 23 96 25 169 10z"/>
<path d="M4332 3153 c59 -122 59 -255 -2 -389 -51 -114 -188 -227 -300 -250
-57 -11 -114 -17 -390 -39 -36 -3 -87 -7 -115 -10 -27 -2 -88 -7 -135 -11 -47
-3 -101 -8 -120 -9 -19 -2 -80 -7 -135 -10 -55 -4 -108 -9 -117 -10 -17 -4
-229 -18 -283 -19 l-30 -1 -3 -998 -2 -997 775 0 775 0 0 821 0 822 86 -168
c66 -131 86 -179 89 -219 4 -48 8 -146 20 -441 3 -66 7 -169 10 -229 3 -59 8
-157 11 -216 2 -61 10 -123 19 -143 64 -153 263 -195 384 -80 54 52 69 105 76
265 3 78 8 181 10 228 3 47 7 148 10 225 3 77 8 183 10 235 3 52 7 145 10 207
l5 112 -110 273 c-61 150 -173 425 -248 610 -98 244 -146 350 -171 382 -34 41
-129 116 -148 116 -5 0 3 -26 19 -57z"/>
</g>
</svg>
